Coordinates
version=1
nRows=19
nColumns=30
inDegrees=yes

Units are S.I. units (second, meters, Newtons, ...)
Angles are in degrees.

endheader
time	floatyaw	floatroll	floatpitch	floatx	floaty	floatz	pro_sup_l	deviation_l	flexion_l	cmc_flexion_l	cmc_abduction_l	mp_flexion_l	ip_flexion_l	2mcp_flexion_l	2mcp_abduction_l	2pm_flexion_l	2md_flexion_l	3mcp_flexion_l	3mcp_abduction_l	3pm_flexion_l	3md_flexion_l	4mcp_flexion_l	4mcp_abduction_l	4pm_flexion_l	4md_flexion_l	5mcp_flexion_l	5mcp_abduction_l	5pm_flexion_l	5md_flexion_l
-0.495000	-160.147433	-5.066637	-73.570646	0.076035	-0.179764	-0.018669	100.216762	5.536334	-1.420679	13.301820	13.620034	-25.547269	-41.727331	29.777981	6.915725	44.051239	30.147910	24.931510	4.285149	45.490715	29.982322	14.029857	-4.184501	52.584357	36.395983	1.621699	-8.670919	61.876398	43.682410
-0.485000	-160.147433	-5.066637	-73.570646	0.075581	-0.179689	-0.018793	100.309391	5.557353	-1.494204	13.384001	13.737961	-25.506538	-41.736243	29.662330	6.882655	43.979203	30.124963	24.815448	4.273412	45.427446	29.959885	13.942849	-4.175466	52.477194	36.366313	1.543000	-8.636452	61.813951	43.650832
-0.475000	-160.147433	-5.066637	-73.570646	0.075103	-0.179640	-0.018915	100.424642	5.575228	-1.540389	13.463355	13.833928	-25.485120	-41.784801	29.509878	6.849042	43.945414	30.119870	24.683734	4.265983	45.382447	29.947921	13.822320	-4.172180	52.424141	36.357041	1.412317	-8.597377	61.828536	43.629951
-0.465000	-160.147433	-5.066637	-73.570646	0.074635	-0.179614	-0.019038	100.546824	5.597340	-1.556637	13.519037	13.894200	-25.492051	-41.870824	29.351278	6.826781	43.991807	30.150951	24.572669	4.269034	45.407455	29.970986	13.699982	-4.175659	52.485089	36.390745	1.270126	-8.572263	61.971893	43.643291
-0.455000	-160.147433	-5.066637	-73.570646	0.074214	-0.179609	-0.019163	100.652755	5.626366	-1.539592	13.524714	13.915795	-25.531651	-41.976831	29.231460	6.828875	44.142173	30.232330	24.528883	4.287029	45.541092	30.049101	13.625238	-4.185498	52.697016	36.484087	1.180827	-8.580106	62.256677	43.712237
-0.445000	-160.147433	-5.066637	-73.570646	0.073863	-0.179619	-0.019291	100.719749	5.658739	-1.485665	13.458741	13.910431	-25.599463	-42.074567	29.198838	6.865603	44.383733	30.366561	24.595291	4.320180	45.785985	30.187063	13.652981	-4.199872	53.049327	36.638636	1.213706	-8.632114	62.638771	43.846605
-0.435000	-160.147433	-5.066637	-73.570646	0.073586	-0.179632	-0.019425	100.734755	5.686391	-1.393080	13.315537	13.900221	-25.682094	-42.135880	29.289584	6.940498	44.664260	30.542220	24.793072	4.363378	46.101955	30.369956	13.823054	-4.215962	53.478949	36.837664	1.413816	-8.725897	63.029422	44.040238
-0.425000	-160.147433	-5.066637	-73.570646	0.073375	-0.179637	-0.019562	100.699952	5.700929	-1.264491	13.111862	13.907728	-25.761536	-42.145770	29.511317	7.047633	44.909742	30.738349	25.107075	4.407519	46.420587	30.567771	14.138760	-4.230732	53.891405	37.051766	1.776218	-8.845400	63.333467	44.273494
-0.415000	-160.147433	-5.066637	-73.570646	0.073217	-0.179620	-0.019695	100.631488	5.697766	-1.108300	12.883946	13.945809	-25.822086	-42.110975	29.834083	7.171865	45.054360	30.932704	25.483714	4.442856	46.673131	30.746913	14.556389	-4.241843	54.198222	37.250835	2.239315	-8.966969	63.491682	44.520554
-0.405000	-160.147433	-5.066637	-73.570646	0.073103	-0.179572	-0.019815	100.551892	5.677790	-0.937420	12.676208	14.011744	-25.856812	-42.058748	30.195789	7.292718	45.066629	31.108338	25.846099	4.462802	46.815934	30.882438	14.995011	-4.248368	54.350898	37.415730	2.704049	-9.068468	63.502394	44.757285
-0.395000	-160.147433	-5.066637	-73.570646	0.073030	-0.179488	-0.019909	100.480564	5.646073	-0.766068	12.526536	14.087732	-25.870587	-42.025466	30.522372	7.390716	44.958561	31.255011	26.121550	4.466326	46.840922	30.964713	15.364910	-4.251012	54.354492	37.543076	3.070740	-9.136791	63.412200	44.965976
-0.385000	-160.147433	-5.066637	-73.570646	0.072998	-0.179368	-0.019971	100.428005	5.609288	-0.606433	12.454459	14.147961	-25.877631	-42.040327	30.754378	7.453516	44.775220	31.366463	26.268329	4.457885	46.769546	30.998237	15.601306	-4.251738	54.256652	37.641322	3.275511	-9.170446	63.285427	45.135952
-0.375000	-160.147433	-5.066637	-73.570646	0.073003	-0.179212	-0.020004	100.396842	5.573868	-0.466842	12.456589	14.170361	-25.893916	-42.112278	30.867503	7.479236	44.572517	31.437681	26.288209	4.445029	46.638136	30.995483	15.686508	-4.252957	54.121080	37.721836	3.310073	-9.177070	63.172552	45.261911
-0.365000	-160.147433	-5.066637	-73.570646	0.073034	-0.179025	-0.020016	100.388332	5.545353	-0.351636	12.510509	14.148098	-25.928141	-42.226850	30.877401	7.475801	44.395739	31.465546	26.219726	4.434900	46.484460	30.970767	15.650689	-4.256615	54.000349	37.791271	3.218601	-9.168359	63.094081	45.342620
-0.355000	-160.147433	-5.066637	-73.570646	0.073076	-0.178812	-0.020025	100.409813	5.527819	-0.261771	12.585244	14.094227	-25.976778	-42.354531	30.827186	7.456878	44.268206	31.452190	26.117637	4.431171	46.339913	30.937015	15.553702	-4.263521	53.919485	37.849181	3.076084	-9.155452	63.044009	45.381033
-0.345000	-160.147433	-5.066637	-73.570646	0.073113	-0.178578	-0.020057	100.478611	5.522627	-0.194921	12.654068	14.035956	-26.026643	-42.466018	30.764888	7.436282	44.191790	31.407064	26.030042	4.432754	46.225532	30.904596	15.459247	-4.273212	53.873548	37.890574	2.958643	-9.146433	63.005106	45.384870
-0.335000	-160.147433	-5.066637	-73.570646	0.073129	-0.178324	-0.020143	100.620319	5.527515	-0.144743	12.704127	14.001365	-26.063366	-42.545961	30.722521	7.423165	44.154731	31.344642	25.983229	4.434782	46.148762	30.880211	15.413657	-4.284553	53.835988	37.910432	2.917230	-9.145670	62.963879	45.366000
-0.325000	-160.147433	-5.066637	-73.570646	0.073112	-0.178048	-0.020323	100.862074	5.538065	-0.100299	12.738520	14.006226	-26.080167	-42.598131	30.706019	7.419752	44.140823	31.278882	25.978421	4.431432	46.101446	30.865365	15.436291	-4.296820	53.772571	37.907190	2.963279	-9.153894	62.916967	45.337908
-0.315000	-160.147433	-5.066637	-73.570646	0.073053	-0.177738	-0.020636	101.222849	5.552377	-0.047403	12.770336	14.048181	-26.081497	-42.640399	30.698719	7.422111	44.136397	31.218545	25.998855	4.419282	46.062401	30.855851	15.521769	-4.310495	53.655965	37.883677	3.069978	-9.168345	62.868564	45.312061
